<svg width="567" height="101" viewBox="0 0 567 101" fill="none" xmlns="http://www.w3.org/2000/svg">
<g clip-path="url(#clip0_2741_610)">
<path d="M566.253 66.8427L562.716 97.591H487.206V91.4686L492.784 91.1965C495.414 91.0151 497.41 90.2894 498.77 89.0196C500.222 87.7497 500.947 85.9357 500.947 83.5774V16.3665C500.947 14.0083 500.222 12.1942 498.77 10.9244C497.41 9.65451 495.414 8.92889 492.784 8.74748L487.206 8.47537V2.35292H562.036V27.7951H556.321C555.687 21.1738 553.782 16.3212 550.607 13.2373C547.523 10.1534 542.761 8.61142 536.321 8.61142H514.145V46.0264H527.886C532.875 46.0264 536.231 44.9833 537.954 42.8971C539.768 40.7203 540.766 37.0921 540.947 32.0128H546.934V66.4346H540.947C540.766 61.2645 539.768 57.6364 537.954 55.5502C536.14 53.3733 532.784 52.2849 527.886 52.2849H514.145V83.4414C514.145 85.7996 514.961 87.7044 516.594 89.1556C518.226 90.5162 520.448 91.1965 523.26 91.1965H535.233C542.852 91.1965 548.521 89.201 552.24 85.2101C555.959 81.1284 558.634 75.006 560.267 66.8427H566.253Z" fill="#231916"/>
<path d="M472.805 32.421C472.171 24.6205 469.994 18.362 466.275 13.6454C462.556 8.83819 457.159 6.43456 450.084 6.43456C443.826 6.43456 438.429 8.33933 433.894 12.1488C429.359 15.9584 425.912 20.947 423.554 27.1148C421.286 33.2826 420.152 39.8586 420.152 46.8427C420.152 53.9176 421.377 60.5389 423.826 66.7067C426.275 72.8745 429.948 77.8631 434.846 81.6727C439.835 85.4822 445.867 87.3869 452.942 87.3869C460.198 87.3869 466.638 85.3915 472.261 81.4005C477.885 77.4096 481.604 71.5593 483.418 63.8495H489.268C487.726 75.1874 483.372 84.0763 476.207 90.5162C469.132 96.8654 460.152 100.04 449.268 100.04C440.198 100.04 432.443 97.8631 426.003 93.5094C419.563 89.065 414.71 83.26 411.445 76.0944C408.27 68.8382 406.683 61.0377 406.683 52.6931C406.683 43.7135 408.497 35.1874 412.125 27.1148C415.753 19.0423 421.105 12.5117 428.18 7.52299C435.345 2.53434 443.826 0.0400085 453.622 0.0400085C463.599 0.0400085 471.762 2.80645 478.112 8.33933C484.551 13.7815 488.361 21.8087 489.54 32.421H472.805Z" fill="#231916"/>
<path d="M413.146 2.35292V8.47537L407.023 8.74748C404.393 8.83818 402.216 9.92662 400.493 12.0128C398.86 14.0082 398.044 16.3665 398.044 19.0876V97.591H391.921L332.33 20.5842V80.8563C332.33 83.4867 333.146 85.845 334.779 87.9312C336.502 90.0173 338.633 91.1058 341.173 91.1965L348.792 91.4686V97.591H309.744V91.4686L315.867 91.1965C318.497 91.1058 320.629 90.0627 322.261 88.0672C323.985 85.981 324.847 83.5774 324.847 80.8563V15.4141L324.166 14.4618C322.443 12.1035 320.311 10.5615 317.772 9.83591C315.323 9.01959 312.33 8.56607 308.792 8.47537V2.35292H335.051L390.561 75.006V19.0876C390.561 16.4572 389.699 14.099 387.976 12.0128C386.343 9.92662 384.257 8.83818 381.717 8.74748L374.098 8.47537V2.35292H413.146Z" fill="#231916"/>
<path d="M306.388 83.0332C307.385 85.4822 309.018 87.4776 311.286 89.0196C313.644 90.4708 316.229 91.2872 319.041 91.4686V97.591H280.265V91.4686C283.712 91.4686 286.569 90.9244 288.837 89.8359C291.104 88.6568 292.238 86.9788 292.238 84.8019C292.238 83.7135 292.011 82.6704 291.558 81.6727L285.027 65.6182H248.156L242.17 80.5842C241.535 82.1262 241.218 83.5774 241.218 84.938C241.218 87.2962 242.306 88.9742 244.483 89.972C246.66 90.9697 249.97 91.4686 254.415 91.4686V97.591H220.537V91.4686C223.893 91.0151 226.614 89.972 228.701 88.3393C230.877 86.7067 232.646 84.2577 234.007 80.9924L266.116 2.35292H273.19L306.388 83.0332ZM282.306 59.0876L266.252 19.7679L250.741 59.0876H282.306Z" fill="#231916"/>
<path d="M239.139 85.8988L240.988 97.591H165.478V91.4686L171.056 91.1965C173.686 91.0151 175.682 90.2894 177.042 89.0196C178.494 87.7497 179.219 85.9357 179.219 83.5774V16.3665C179.219 14.0083 178.494 12.1942 177.042 10.9244C175.682 9.65451 173.686 8.92889 171.056 8.74748L165.478 8.47537V2.35292H207.383V8.47537L200.444 8.74748C197.995 8.83818 196.045 9.56381 194.593 10.9244C193.142 12.1942 192.417 14.0083 192.417 16.3665V83.4414C192.417 85.7996 193.233 87.7044 194.866 89.1556C196.498 90.5162 198.72 91.1965 201.532 91.1965H213.505C221.124 91.1965 227.446 90.682 231.698 85.3674C234.355 80.5842 234.849 87.1531 236.481 78.9898L239.139 85.8988Z" fill="#231916"/>
<path d="M162.401 81.9448C164.396 84.5751 166.346 86.752 168.251 88.4754C170.156 90.1987 172.287 91.1965 174.646 91.4686V97.591H158.047C155.507 94.5071 152.968 91.1965 150.428 87.659L126.21 54.3257H114.238V83.5774C114.238 85.9357 114.918 87.7497 116.278 89.0196C117.639 90.2894 119.634 91.0151 122.265 91.1965L127.843 91.4686V97.591H87.2988V91.4686L92.8771 91.1965C95.5074 91.0151 97.5029 90.2894 98.8635 89.0196C100.315 87.7497 101.04 85.9357 101.04 83.5774V16.3665C101.04 14.0083 100.315 12.1942 98.8635 10.9244C97.5029 9.65451 95.5074 8.92889 92.8771 8.74748L87.2988 8.47537V2.35292H132.605C139.136 2.35292 144.714 3.48671 149.34 5.75429C154.056 7.93116 157.594 10.879 159.952 14.5978C162.31 18.2259 163.489 22.1262 163.489 26.2985C163.489 32.1035 161.403 37.455 157.231 42.3529C153.058 47.1602 147.163 50.3801 139.544 52.0128L162.401 81.9448ZM114.238 48.0672H125.53C130.247 48.0672 134.283 47.1148 137.639 45.2101C141.086 43.3053 143.671 40.8563 145.394 37.8631C147.208 34.7792 148.115 31.5139 148.115 28.0672C148.115 24.7112 147.253 21.5366 145.53 18.5434C143.807 15.5502 141.222 13.1466 137.775 11.3325C134.328 9.51846 130.156 8.61142 125.258 8.61142H114.238V48.0672Z" fill="#231916"/>
<path d="M46.2585 100.04C37.3696 100.04 29.3878 97.8178 22.3129 93.3733C15.3288 88.9289 9.84127 82.8971 5.85034 75.2781C1.95011 67.5683 0 59.0876 0 49.8359C0 40.4935 1.95011 32.0581 5.85034 24.5298C9.84127 16.9108 15.3288 10.9244 22.3129 6.57062C29.2971 2.21688 37.2336 0.0400085 46.1224 0.0400085C55.0113 0.0400085 62.9478 2.26223 69.932 6.70667C77.0068 11.1511 82.4943 17.2282 86.3946 24.938C90.3855 32.557 92.3809 40.9924 92.3809 50.2441C92.3809 59.5865 90.3855 68.0672 86.3946 75.6863C82.4943 83.2146 77.0521 89.1557 70.068 93.5094C63.0839 97.8631 55.1474 100.04 46.2585 100.04ZM49.7959 93.6454C55.3288 93.6454 60.1361 92.0128 64.2177 88.7475C68.39 85.3915 71.5646 80.811 73.7415 75.006C75.9184 69.1103 77.0068 62.3983 77.0068 54.8699C77.0068 45.8903 75.5102 37.6817 72.517 30.2441C69.5238 22.8064 65.3968 16.9561 60.1361 12.6931C54.8753 8.43003 49.0703 6.29851 42.7211 6.29851C37.1882 6.29851 32.3356 7.93116 28.1633 11.1965C24.0816 14.4618 20.907 19.0423 18.6395 24.938C16.4626 30.8337 15.3741 37.5457 15.3741 45.074C15.3741 54.0536 16.8707 62.2622 19.8639 69.6999C22.8571 77.0468 26.9841 82.8972 32.2449 87.2509C37.5057 91.5139 43.356 93.6454 49.7959 93.6454Z" fill="#231916"/>
</g>
<defs>
<clipPath id="clip0_2741_610">
<rect width="567" height="101" fill="white"/>
</clipPath>
</defs>
</svg>
