<svg width="49" height="55" viewBox="0 0 49 55" fill="none" xmlns="http://www.w3.org/2000/svg">
<path d="M45.4626 31.0651C42.9608 29.8294 40.5665 29.4011 35.5644 29.6174C35.5005 29.6203 35.4366 29.6203 35.3728 29.6174C32.6067 29.4708 30.7119 29.4142 29.6389 28.7143C29.0828 28.3528 28.7648 27.7197 28.7648 27.0561C28.7648 26.3926 29.0828 25.7595 29.6389 25.398C30.7119 24.6996 32.6067 24.6429 35.3728 24.4948C35.4366 24.4919 35.5005 24.4905 35.5644 24.4948C40.5665 24.7097 42.9608 24.2814 45.4626 23.0472C45.5163 23.0211 45.5686 22.992 45.6194 22.9615C51.4782 19.4768 47.8656 13.557 47.8656 13.557C47.8656 13.557 44.5449 7.46743 38.5962 10.7997C38.5453 10.8288 38.4945 10.8593 38.4466 10.8912C36.1249 12.4405 34.5567 14.3005 32.2423 18.7406C32.2132 18.7973 32.1798 18.8524 32.145 18.9062C30.6349 21.2279 29.6374 22.841 28.4962 23.4204C27.9052 23.7209 27.1966 23.6803 26.6231 23.3478C26.0496 23.0167 25.659 22.4243 25.6241 21.7622C25.5559 20.483 26.4532 18.8132 27.7092 16.3449C27.7382 16.2882 27.7702 16.2316 27.8036 16.1779C30.4912 11.9541 31.3174 9.66574 31.4989 6.88228C31.5032 6.82275 31.5047 6.76322 31.5032 6.70369C31.4176 -0.113369 24.4843 0.0550611 24.4843 0.0550611C24.4843 0.0550611 17.5511 -0.113369 17.4625 6.70224C17.4625 6.76177 17.4625 6.82275 17.4669 6.88083C17.6484 9.66574 18.4746 11.9526 21.1622 16.1764C21.1956 16.2301 21.229 16.2868 21.2566 16.3434C22.5125 18.8132 23.4113 20.4816 23.3416 21.7608C23.3068 22.4229 22.9162 23.0153 22.3427 23.3463C21.7691 23.6774 21.0606 23.7195 20.4696 23.4189C19.3283 22.8381 18.3308 21.2264 16.8208 18.9047C16.7859 18.851 16.754 18.7958 16.7235 18.7392C14.409 14.299 12.8409 12.439 10.5192 10.8898C10.4713 10.8578 10.4204 10.8259 10.3696 10.7983C4.42229 7.46453 1.10161 13.5556 1.10161 13.5556C1.10161 13.5556 -2.51093 19.4753 3.34782 22.9601C3.39864 22.9906 3.45237 23.0196 3.50464 23.0458C6.0064 24.2814 8.40072 24.7097 13.4028 24.4934C13.4667 24.4905 13.5306 24.4905 13.5945 24.4934C16.3605 24.64 18.2553 24.6967 19.3283 25.3965C19.8845 25.7581 20.2024 26.3911 20.2024 27.0547C20.2024 27.7182 19.8845 28.3513 19.3283 28.7128C18.2553 29.4113 16.3605 29.4679 13.5945 29.616C13.5306 29.6189 13.4667 29.6203 13.4028 29.616C8.40072 29.4011 6.0064 29.8294 3.50464 31.0636C3.45092 31.0897 3.39864 31.1188 3.34782 31.1493C-2.51093 34.634 1.10161 40.5538 1.10161 40.5538C1.10161 40.5538 4.42229 46.6434 10.3711 43.3111C10.4219 43.282 10.4727 43.2515 10.5206 43.2196C12.8423 41.6703 14.4105 39.8104 16.7249 35.3702C16.754 35.3136 16.7874 35.2584 16.8222 35.2047C18.3323 32.8829 19.3298 31.2698 20.4711 30.6904C21.062 30.3899 21.7706 30.4305 22.3441 30.763C22.9191 31.0941 23.3082 31.6865 23.3431 32.3486C23.4113 33.6278 22.514 35.2976 21.258 37.766C21.229 37.8226 21.197 37.8792 21.1637 37.9329C18.476 42.1568 17.6499 44.4451 17.4684 47.2285C17.464 47.2881 17.4625 47.3476 17.464 47.4071C17.5526 54.2242 24.4858 54.0543 24.4858 54.0543C24.4858 54.0543 31.419 54.2227 31.5076 47.4071C31.5076 47.3476 31.5076 47.2866 31.5032 47.2285C31.3217 44.4436 30.4955 42.1568 27.8079 37.9329C27.7745 37.8792 27.7411 37.8226 27.7135 37.766C26.4576 35.2961 25.5588 33.6278 25.6285 32.3486C25.6633 31.6865 26.0539 31.0941 26.6275 30.763C27.201 30.432 27.9096 30.3899 28.5005 30.6904C29.6418 31.2712 30.6393 32.8829 32.1494 35.2047C32.1842 35.2584 32.2161 35.3136 32.2466 35.3702C34.5611 39.8104 36.1292 41.6703 38.451 43.2196C38.4989 43.2515 38.5497 43.2835 38.6005 43.3111C44.5493 46.6448 47.87 40.5538 47.87 40.5538C47.87 40.5538 51.4825 34.634 45.6238 31.1493C45.5729 31.1188 45.5192 31.0897 45.4669 31.0636L45.4626 31.0651Z" fill="#E4E0D4"/>
</svg>
