<svg width="44" height="45" viewBox="0 0 44 45" fill="none" xmlns="http://www.w3.org/2000/svg">
<g clip-path="url(#clip0_2784_751)">
<path d="M39.1367 25.3311C37.0931 24.3217 35.1373 23.9718 31.0513 24.1486C30.9991 24.1509 30.9469 24.1509 30.8948 24.1486C28.6353 24.0288 27.0875 23.9825 26.211 23.4108C25.7567 23.1155 25.497 22.5984 25.497 22.0563C25.497 21.5143 25.7567 20.9972 26.211 20.7019C27.0875 20.1314 28.6353 20.0851 30.8948 19.9641C30.9469 19.9618 30.9991 19.9606 31.0513 19.9641C35.1373 20.1397 37.0931 19.7898 39.1367 18.7816C39.1806 18.7603 39.2233 18.7366 39.2648 18.7116C44.0506 15.8651 41.0997 11.0295 41.0997 11.0295C41.0997 11.0295 38.3871 6.05516 33.5278 8.77718C33.4863 8.8009 33.4448 8.82581 33.4057 8.8519C31.5091 10.1174 30.2282 11.6368 28.3376 15.2638C28.3139 15.31 28.2866 15.3551 28.2581 15.399C27.0246 17.2955 26.2098 18.6132 25.2776 19.0864C24.7948 19.332 24.216 19.2987 23.7475 19.0271C23.279 18.7567 22.96 18.2728 22.9315 17.732C22.8758 16.687 23.6088 15.3231 24.6347 13.3068C24.6584 13.2605 24.6845 13.2142 24.7118 13.1704C26.9072 9.7201 27.5821 7.85086 27.7303 5.57718C27.7339 5.52855 27.7351 5.47992 27.7339 5.43129C27.6639 -0.137278 22.0005 0.000305178 22.0005 0.000305178C22.0005 0.000305178 16.337 -0.137278 16.2647 5.43011C16.2647 5.47873 16.2647 5.52855 16.2682 5.57599C16.4165 7.85086 17.0914 9.71891 19.2868 13.1692C19.314 13.2131 19.3413 13.2593 19.3639 13.3056C20.3898 15.3231 21.124 16.6859 21.067 17.7308C21.0386 18.2716 20.7195 18.7555 20.251 19.026C19.7825 19.2964 19.2037 19.3308 18.721 19.0853C17.7888 18.6108 16.9739 17.2943 15.7404 15.3978C15.712 15.3539 15.6859 15.3088 15.661 15.2626C13.7704 11.6356 12.4894 10.1162 10.5929 8.85071C10.5538 8.82462 10.5123 8.79853 10.4707 8.77599C5.61263 6.05279 2.9001 11.0283 2.9001 11.0283C2.9001 11.0283 -0.0508261 15.8639 4.73494 18.7105C4.77645 18.7354 4.82034 18.7591 4.86304 18.7804C6.90662 19.7898 8.86244 20.1397 12.9484 19.9629C13.0006 19.9606 13.0528 19.9606 13.105 19.9629C15.3644 20.0827 16.9123 20.129 17.7888 20.7007C18.243 20.996 18.5028 21.5131 18.5028 22.0552C18.5028 22.5972 18.243 23.1143 17.7888 23.4096C16.9123 23.9801 15.3644 24.0264 13.105 24.1474C13.0528 24.1497 13.0006 24.1509 12.9484 24.1474C8.86244 23.9718 6.90662 24.3217 4.86304 25.3299C4.81915 25.3512 4.77645 25.375 4.73494 25.3999C-0.0508261 28.2464 2.9001 33.082 2.9001 33.082C2.9001 33.082 5.61263 38.0563 10.4719 35.3343C10.5134 35.3106 10.555 35.2857 10.5941 35.2596C12.4906 33.9941 13.7716 32.4747 15.6621 28.8477C15.6859 28.8015 15.7131 28.7564 15.7416 28.7125C16.9751 26.816 17.7899 25.4983 18.7222 25.0251C19.2049 24.7796 19.7837 24.8128 20.2522 25.0844C20.7219 25.3548 21.0398 25.8387 21.0682 26.3796C21.124 27.4245 20.391 28.7884 19.365 30.8048C19.3413 30.851 19.3152 30.8973 19.2879 30.9412C17.0925 34.3914 16.4177 36.2606 16.2694 38.5343C16.2659 38.583 16.2647 38.6316 16.2659 38.6802C16.3382 44.2488 22.0017 44.11 22.0017 44.11C22.0017 44.11 27.6651 44.2476 27.7375 38.6802C27.7375 38.6316 27.7375 38.5818 27.7339 38.5343C27.5856 36.2595 26.9108 34.3914 24.7154 30.9412C24.6881 30.8973 24.6608 30.851 24.6383 30.8048C23.6123 28.7873 22.8782 27.4245 22.9351 26.3796C22.9636 25.8387 23.2826 25.3548 23.7511 25.0844C24.2196 24.8139 24.7984 24.7796 25.2811 25.0251C26.2134 25.4995 27.0282 26.816 28.2617 28.7125C28.2902 28.7564 28.3163 28.8015 28.3412 28.8477C30.2318 32.4747 31.5127 33.9941 33.4092 35.2596C33.4484 35.2857 33.4899 35.3118 33.5314 35.3343C38.3907 38.0575 41.1032 33.082 41.1032 33.082C41.1032 33.082 44.0541 28.2464 39.2684 25.3999C39.2269 25.375 39.183 25.3512 39.1403 25.3299L39.1367 25.3311Z" fill="#231916"/>
</g>
<defs>
<clipPath id="clip0_2784_751">
<rect width="40" height="44.1109" fill="white" transform="translate(2)"/>
</clipPath>
</defs>
</svg>
